HIERARCHY
ROOT Hips
{
	OFFSET 0.00000 0.00000 0.00000
	CHANNELS 6 Xposition Yposition Zposition Zrotation Yrotation Xrotation 
	JOINT LHipJoint
	{
		OFFSET 0 0 0
		CHANNELS 3 Zrotation Yrotation Xrotation
		JOINT LeftHip
		{
			OFFSET 1.75344 -1.53157 0.77399
			CHANNELS 3 Zrotation Yrotation Xrotation
			JOINT LeftKnee
			{
				OFFSET 2.25415 -6.19323 0.00000
				CHANNELS 3 Zrotation Yrotation Xrotation
				JOINT LeftAnkle
				{
					OFFSET 2.30342 -6.32861 0.00000
					CHANNELS 3 Zrotation Yrotation Xrotation
					JOINT LeftToe
					{
						OFFSET 0.10958 -0.30108 1.49206
						CHANNELS 3 Zrotation Yrotation Xrotation
						End Site
						{
							OFFSET 0.00000 -0.00000 0.77783
						}
					}
				}
			}
		}
	}
	JOINT RHipJoint
	{
		OFFSET 0 0 0
		CHANNELS 3 Zrotation Yrotation Xrotation
		JOINT RightHip
		{
			OFFSET -1.81912 -1.53156 0.77399
			CHANNELS 3 Zrotation Yrotation Xrotation
			JOINT RightKnee
			{
				OFFSET -2.22882 -6.12365 0.00000
				CHANNELS 3 Zrotation Yrotation Xrotation
				JOINT RightAnkle
				{
					OFFSET -2.21943 -6.09785 0.00000
					CHANNELS 3 Zrotation Yrotation Xrotation
					JOINT RightToe
					{
						OFFSET -0.18931 -0.52012 1.59379
						CHANNELS 3 Zrotation Yrotation Xrotation
						End Site
						{
							OFFSET -0.00000 -0.00000 0.84686
						}
					}
				}
			}
		}
	}
	JOINT lowerback
	{
		OFFSET 0 0 0
		CHANNELS 3 Zrotation Yrotation Xrotation
		JOINT Chest
		{
			OFFSET -0.00200 1.66634 -0.14248
			CHANNELS 3 Zrotation Yrotation Xrotation
			JOINT Chest2
			{
				OFFSET -0.00875 1.64542 0.09514
				CHANNELS 3 Zrotation Yrotation Xrotation
				JOINT lowerneck
				{
					OFFSET 0 0 0
					CHANNELS 3 Zrotation Yrotation Xrotation
					JOINT Neck
					{
						OFFSET 0.02257 1.59605 0.00839
						CHANNELS 3 Zrotation Yrotation Xrotation
						JOINT Head
						{
							OFFSET -0.10214 1.57530 -0.23335
							CHANNELS 3 Zrotation Yrotation Xrotation
							End Site
							{
								OFFSET -0.03588 1.60717 -0.08062
							}
						}
					}
				}
				JOINT LeftCollar
				{
					OFFSET 0 0 0
					CHANNELS 3 Zrotation Yrotation Xrotation
					JOINT LeftShoulder
					{
						OFFSET 2.54983 1.10186 0.40078
CHANNELS 3 Zrotation Xrotation Yrotation
						JOINT LeftElbow
						{
OFFSET 0 -4.288400 0.000000
CHANNELS 3 Zrotation Xrotation Yrotation
							JOINT LeftWrist
							{
OFFSET 0 -3.065520 -0.000000
CHANNELS 3 Zrotation Xrotation Yrotation
								JOINT lhand
								{
									OFFSET 0 0 0
CHANNELS 3 Zrotation Xrotation Yrotation
									JOINT LFingers
									{
OFFSET 0 -0.753040 0.000000
CHANNELS 3 Zrotation Xrotation Yrotation
										End Site
										{
OFFSET 0 -0.607120 0.000000
										}
									}
								}
								JOINT LThumb
								{
OFFSET 0 0.000000 0.000000
CHANNELS 3 Zrotation Xrotation Yrotation
									End Site
									{
OFFSET 0 -0.616390 0.616390
									}
								}
							}
						}
					}
				}
				JOINT RightCollar
				{
					OFFSET 0 0 0
					CHANNELS 3 Zrotation Yrotation Xrotation
					JOINT RightShoulder
					{
						OFFSET -2.60909 1.35448 0.21802
CHANNELS 3 Zrotation Xrotation Yrotation
						JOINT RightElbow
						{
OFFSET 0 -4.521720 -0.000000
CHANNELS 3 Zrotation Xrotation Yrotation
							JOINT RightWrist
							{
OFFSET 0 -2.891400 0.000000
CHANNELS 3 Zrotation Xrotation Yrotation
								JOINT rhand
								{
									OFFSET 0 0 0
CHANNELS 3 Zrotation Xrotation Yrotation
									JOINT RFingers
									{
OFFSET 0 -0.680540 0.000000
CHANNELS 3 Zrotation Xrotation Yrotation
										End Site
										{
OFFSET 0 -0.548670 0.000000
										}
									}
								}
								JOINT RThumb
								{
OFFSET 0 0.000000 0.000000
CHANNELS 3 Zrotation Xrotation Yrotation
									End Site
									{
OFFSET 0 -0.557050 0.557050
									}
								}
							}
						}
					}
				}
			}
		}
	}
}
MOTION
Frames: 6
Frame Time: 0.008333333333333333
-8.056896 15.484918 -26.849415 355.054040 170.285459 -1.875767 0.000000 0.000000 0.000000 -31.218441 -16.059487 5.095305 1.083747 6.616480 18.584087 0.679772 17.117925 -29.584822 0.995125 -6.348729 -17.799734 0.000000 0.000000 0.000000 23.582296 2.505681 -28.010421 -7.017487 -15.341045 48.930731 -0.098476 -18.281425 -26.699915 -0.459630 -4.345488 12.051372 -5.309906 -2.383816 7.932146 -0.799503 -3.764558 -2.302371 2.635439 -1.633033 -6.587977 -17.514001 -14.750073 1.045115 14.573661 -20.802323 10.693648 5.709382 -10.199647 6.461298 0.000000 0.000000 0.000000 14.661167 -3.033743 -16.169387 20.964362 -31.786364 6.031315 8.861073 15.665629 25.270883 0.000000 0.000000 0.000000 -7.125000 0.000000 0.000000 -12.601685 4.957953 -11.759710 0.000000 0.000000 0.000000 -14.896987 15.022831 22.354637 -16.532146 -26.236890 -3.878259 -7.785550 21.996594 50.161145 0.000000 0.000000 0.000000 7.125000 0.000000 0.000000 59.649266 73.071667 -43.485652
-7.982627 15.477269 -27.315777 354.677020 167.745783 -1.681086 0.000000 0.000000 0.000000 -31.776914 -13.339944 6.868735 0.876910 5.969577 16.696341 0.906900 16.664451 -30.624795 0.563741 -4.795629 -13.329171 0.000000 0.000000 0.000000 24.636718 3.729336 -28.002056 -4.194886 -12.411333 37.209200 -0.125797 -22.181545 -32.095452 -1.203161 -6.957275 19.589534 -5.854088 -2.658249 8.112430 -0.801875 -4.209558 -2.588564 3.009806 -1.808409 -6.925745 -18.341808 -14.777200 2.030251 15.624177 -21.029519 9.614907 6.205444 -10.368284 6.206308 0.000000 0.000000 0.000000 15.128782 -4.093187 -20.333231 22.581028 -33.627143 6.905011 8.952364 14.133165 25.116917 0.000000 0.000000 0.000000 -7.125000 0.000000 0.000000 -12.542741 5.099194 -11.667646 0.000000 0.000000 0.000000 -14.955882 16.182601 23.016221 -17.404941 -27.388527 -4.272022 -6.151865 19.250354 49.942811 0.000000 0.000000 0.000000 7.125000 0.000000 0.000000 60.160909 72.381058 -43.169382
-7.875260 15.453716 -27.793998 353.908055 164.863466 -1.223215 0.000000 0.000000 0.000000 -32.494494 -10.038995 8.479906 0.618535 5.032556 14.001595 0.780018 17.296770 -30.459554 0.646020 -5.140415 -14.309744 0.000000 0.000000 0.000000 24.511734 7.148730 -26.881544 -2.286405 -9.432865 27.163584 -0.278700 -26.417869 -38.490088 -2.095444 -9.060919 25.987018 -6.378610 -2.930880 7.133887 -1.148097 -4.561758 -2.792113 2.922731 -1.968130 -6.539918 -17.352423 -14.632843 1.767747 15.293015 -20.749735 9.272444 6.002103 -10.211528 5.948074 0.000000 0.000000 0.000000 15.603167 -4.502527 -23.444566 24.445815 -35.631283 7.965176 9.301895 14.078387 25.364843 0.000000 0.000000 0.000000 -7.125000 0.000000 0.000000 -12.338363 4.818073 -11.535039 0.000000 0.000000 0.000000 -14.486898 17.130232 23.564864 -18.646387 -28.976537 -4.858500 -5.796913 17.869258 46.086255 0.000000 0.000000 0.000000 7.125000 0.000000 0.000000 50.651751 70.203755 -33.185929
-7.725561 15.413252 -28.231822 353.033648 161.695295 -1.072508 0.000000 0.000000 0.000000 -32.909954 -6.553348 9.048329 0.531741 4.672845 12.977777 0.430260 17.982283 -28.827890 2.003885 -8.872428 -25.398062 0.000000 0.000000 0.000000 21.982068 18.612772 -22.791654 -1.357346 -7.374534 20.829808 -2.347088 -32.065944 -52.649609 -4.387784 -12.658916 38.105166 -7.029733 -3.100870 6.877467 -1.412959 -4.849552 -3.333989 3.036339 -2.047204 -6.920199 -17.318648 -14.029483 2.592812 15.548300 -19.997642 8.508831 6.265597 -9.892747 5.471347 0.000000 0.000000 0.000000 16.358720 -3.939250 -26.939512 26.357312 -37.559303 9.104592 7.897503 13.230225 26.257191 0.000000 0.000000 0.000000 -7.125000 0.000000 0.000000 -13.203393 4.095723 -12.571403 0.000000 0.000000 0.000000 -14.276871 18.329863 24.911550 -19.705277 -30.285601 -5.381982 -4.913442 16.397791 49.588799 0.000000 0.000000 0.000000 7.125000 0.000000 0.000000 60.070027 71.775293 -42.424654
-7.545642 15.368019 -28.670661 351.192219 158.958397 -1.171843 0.000000 0.000000 0.000000 -33.647309 -1.858485 8.305279 0.548181 4.742690 13.176242 0.471842 15.521628 -26.241616 2.938403 -10.594220 -30.923751 0.000000 0.000000 0.000000 19.092759 26.285823 -20.978082 -1.181864 -6.899445 19.417844 -5.777859 -31.986434 -61.809323 -5.772065 -14.203665 44.059622 -8.159749 -3.395492 6.267427 -1.921104 -5.293174 -3.613635 3.133924 -2.203122 -6.781976 -18.047280 -13.812006 2.157124 15.679089 -19.696918 8.580951 6.409696 -9.756789 5.602992 0.000000 0.000000 0.000000 16.759897 -2.973222 -28.988166 28.062636 -39.173511 10.163352 9.964091 11.768079 26.450699 0.000000 0.000000 0.000000 -7.125000 0.000000 0.000000 -11.977865 3.676465 -11.442342 0.000000 0.000000 0.000000 -14.079266 18.928356 26.533083 -20.954477 -31.775123 -6.026022 -5.762150 15.729617 49.196470 0.000000 0.000000 0.000000 7.125000 0.000000 0.000000 58.380181 71.890462 -41.135091
-7.345665 15.307864 -29.144687 350.459432 155.704070 -2.029332 0.000000 0.000000 0.000000 -33.092382 3.363409 6.765541 0.892454 6.019368 16.841341 0.624611 11.828338 -23.517786 3.023081 -10.728864 -31.374492 0.000000 0.000000 0.000000 21.363798 21.243635 -20.641021 -1.158580 -6.833518 19.223044 -1.672482 -33.678487 -52.248376 -4.107328 -12.300612 36.805712 -7.894946 -3.473749 6.380582 -2.160462 -5.395897 -3.572473 2.755590 -2.269336 -6.837112 -18.029906 -13.367922 1.073578 15.431878 -18.958181 8.898701 6.348242 -9.361801 5.725308 0.000000 0.000000 0.000000 16.627305 -1.203946 -29.540570 28.350292 -39.436626 10.345468 9.845190 11.144858 26.443323 0.000000 0.000000 0.000000 -7.125000 0.000000 0.000000 -12.048314 3.697609 -11.508270 0.000000 0.000000 0.000000 -13.660002 18.641073 27.528550 -21.415422 -32.310000 -6.270525 -6.097290 15.683957 49.792643 0.000000 0.000000 0.000000 7.125000 0.000000 0.000000 59.779610 72.292674 -42.748964
